<?xml version="1.0" encoding="utf-8"?>
<!-- Generator: Adobe Illustrator 25.4.1, SVG Export Plug-In . SVG Version: 6.00 Build 0)  -->
<svg version="1.1" id="Layer_1" xmlns="http://www.w3.org/2000/svg" xmlns:xlink="http://www.w3.org/1999/xlink" x="0px" y="0px"
	 viewBox="0 0 300 39.4" style="enable-background:new 0 0 300 39.4;" xml:space="preserve">
<path d="M22.5,4c0-3.2-3-4.2-5.6-4v0.5c1.5,0,2.7,0.5,2.7,1.6c0,0.7-0.5,1.6-2,1.6c-1.2,0-3.5-0.7-5.4-1.3C10.1,1.7,8.2,1,6.6,1
	C3.4,1,1,3.4,1,6.3c0,2.4,1.8,3.2,2.5,3.5l0.2-0.4C3.2,9.1,2.8,8.7,2.8,7.8C2.8,7.1,3.4,6,5.1,6c1.5,0,3.4,0.7,6,1.4
	c2.2,0.6,4.7,1.2,6,1.4v5l-2.5,2.1v0.2l2.5,2.2v6.9c-1.3,0.7-2.8,0.9-4,0.9c-2.4,0-4.6-0.6-6.4-2.6l6.7-3.2V9.1l-8.3,3.6
	C6,10.5,7.7,9.1,9.4,8L9.3,7.7C4.4,9,0,13.5,0,19c0,6.6,5.4,11.5,11.5,11.5c6.6,0,10.8-5.2,10.7-10.6h-0.4c-1,2.1-2.4,4.1-4.2,5.1
	v-6.8l2.6-2.1v-0.2l-2.6-2.2v-5C20,8.7,22.5,7.1,22.5,4z M8.3,22.1l-2,1c-1.1-1.5-1.9-3.5-1.9-6.2c0-1.1,0.1-2.5,0.5-3.5l3.4-1.5
	V22.1z M25.6,25.7l-2.2,1.6l0.3,0.3l1-0.7l3.6,3.3l4.9-3.3L33,26.6l-1.3,0.8l-1.6-1.6V14.6l1.3-1l2.8,2.3v9.9c0,6.2-1.4,7.2-4.2,8.2
	v0.4c4.6,0.2,8.8-1.4,8.8-9.3V14.5l1.5-1.2L40,13l-1.3,1l-4-3.5L30,14V0.6h-0.3l-5.8,3.9v0.3c0.6,0.4,1.6,0.6,1.6,2.5v18.4
	L25.6,25.7z M55.4,23.9l-4,3.1l-4.2-3.3v-1.9l7.8-5.1v-0.2l-3.8-5.9l-8.4,4.5v10.6L41.1,27l0.3,0.3l1.5-1.2l5.5,4l7.4-5.8L55.4,23.9
	z M47.3,21.2v-8l0.3-0.2l3.6,5.6L47.3,21.2z M86.6,2.5c0-0.5-0.1-0.9-0.3-1.5h-0.4c-0.5,1.4-1.1,2.1-2.7,2.1c-1.4,0-2.5-0.9-3.1-1.5
	L75.4,7l0.4,0.4l1.3-1.5c1,0.8,1.7,1.5,4,1.6v13.6L71.6,4.6c-0.7-1.2-2-3.1-4.3-3.1c-2.6,0-4.9,2.2-4.6,5.9h0.5
	c0.1-1,0.6-2.1,1.7-2.1c0.9,0,1.7,0.9,2.1,1.6v5.3c-3,0-4.9,1.4-4.9,3.8c0,1.2,0.6,3.3,2.7,3.7v-0.4c-0.3-0.3-0.5-0.6-0.5-1.1
	c0-0.9,0.7-1.5,1.9-1.5c0.2,0,0.7,0,0.9,0.1v6.9c-3.5,0-6.1,1.9-6.1,5.2c0,3.1,2.7,4.6,5.5,4.4v-0.4c-1.7-0.2-2.7-1-2.7-2.1
	c0-1.4,1-2.1,2.3-2.1s2.5,0.8,3.3,1.7l4.7-5.2l-0.4-0.4l-1.2,1.4c-1.8-1.6-2.8-2.2-4.9-2.5V7.3l13.2,22.9h0.9V7.4
	C84.3,7.3,86.6,5.4,86.6,2.5z M98.4,23.9l-4,3.1l-4.2-3.3v-1.9l7.8-5.1v-0.2l-3.8-5.9l-8.4,4.5v10.6L84,27l0.3,0.3l1.5-1.2l5.5,4
	l7.4-5.8L98.4,23.9z M90.3,21.2v-8l0.3-0.2l3.6,5.6L90.3,21.2z M125.1,12.3l-1.2,0.9l-3.1-2.6l-3.6,3.3l1.5,1.4v12.3l-4-2.5v-10
	l1.3-0.9l-3.8-3.5l-3.5,3.3l1.5,1.4v11.7l-0.5,0.3l-3.5-2.4v-9.8c0-2.3-1.1-2.9-2.5-3.8c-1.2-0.7-1.7-1.4-1.7-2.5
	c0-0.9,0.9-1.5,1.4-1.7V6.8c-1.2,0-4.7,1.3-4.8,4.5c0,1.6,0.7,2.3,1.6,3.1c0.8,0.8,1.6,1.5,1.6,2.9v9.4l-1.7,1.4l0.3,0.4l1.6-1.2
	l4.3,3.4l4.1-2.8l4.5,2.8l8.7-5V14.3l2.1-1.6L125.1,12.3z M155.4,3.3l-1.6,1.5l-3.6-3.2l-5.3,4V1.9h-0.5l0.1,26.4
	c-0.5-0.1-1.9-0.4-3.1-0.6l-0.1-22.1c0-1.6-1.2-3.9-4.1-3.9c-3,0-4.9,2.3-4.9,4.6h0.5c0.2-1,0.7-1.8,1.6-1.8c1,0,1.9,0.6,1.9,2.8
	v6.4c-3,0.1-4.7,1.8-4.7,3.8c0,1.3,0.6,3.3,2.7,3.3l0.1-0.4c-0.7-0.3-0.9-0.7-0.9-1.1c0-0.9,0.9-1.3,2.1-1.3h0.6v10.1
	c-2.4,0.8-3.5,2.6-3.5,4.5c0,2.7,2.2,4.8,5.4,4.8c2.3,0,4.2-0.4,6.3-0.9c1.7-0.3,3.7-0.7,4.7-0.7c1.2,0,1.8,0.6,1.8,1.5
	c0,1.1-0.5,1.6-1.2,1.7l0.1,0.4c2.7-0.5,4.2-2.1,4.2-4.5c0-2.5-2.4-4-5-4c-1.4,0-4,0.4-6.1,0.9c-2.3,0.5-4.5,0.7-5.2,0.7
	c-1.1,0-2.5-0.5-2.5-2.1c0-1.4,1.1-2.4,3.9-2.4c1.5,0,3.2,0.2,5.1,0.7c2,0.4,3.7,1,5.4,1c2.4,0,4.5-0.9,4.5-4.3V5.3l1.9-1.6
	L155.4,3.3z M148.7,13.4c-0.4,0.5-1.1,0.9-1.9,0.9c-0.9,0-1.6-0.5-2-0.9V6.1l1.7-1.1l2.3,2.1v6.3H148.7z M148.7,18.2
	c-0.4-0.4-1.1-0.8-1.9-0.8s-1.6,0.5-2,0.8v-4.3c0.3,0.3,1.1,0.9,2,0.9s1.6-0.5,1.9-0.9V18.2z M148.7,25.9c0,1.3-0.9,2.6-2.6,2.6
	c-0.3,0-1,0-1.3-0.1v-9.5c0.4-0.4,1.1-0.9,2-0.9c0.8,0,1.5,0.5,1.9,0.9L148.7,25.9z M171,14.3l-5.3-3.8l-7.9,4.5v10.7l-1.6,1.3
	l0.2,0.3l1.3-1l5.2,3.8l8.1-4.9V14.3z M162.3,24.6V12.9l4.1,3v11.6L162.3,24.6z M186.5,11h-0.3c-0.4,0.4-1,0.7-1.4,0.7
	c-0.6,0-1.4-0.4-1.8-0.9h-0.3l-2.8,3l-2.8-3l-4.8,3.3l0.2,0.4l1.3-0.9l1.7,1.8v10.3l-2.2,1.6l0.3,0.3l1-0.7l3.9,3.3l5.1-3.4
	l-0.2-0.3l-1.4,0.9l-1.9-1.7V14.2c0.8,0.9,1.8,1.7,2.9,1.7C185.1,15.8,186.3,13.4,186.5,11z M206.1,26.6l-5.6,3.6L193,18.8l5.3-8.3
	h0.3c0.6,0.6,1.7,1.3,2.7,1.3c1.1,0,1.9-0.6,2.4-1.3h0.3c-0.2,3.3-2.4,5.2-4.1,5.2s-2.5-0.8-3.4-1.3l-0.5,0.7l8.2,12.1l1.6-1
	L206.1,26.6z M188.2,25.7l-2.2,1.6l0.3,0.3l1-0.7l3.6,3.3l4.9-3.3l-0.3-0.3l-1.2,0.8l-1.6-1.6V0.6h-0.3l-5.9,3.9v0.3
	c0.6,0.3,1.7,0.5,1.7,2.5V25.7z M233.2,4c0-3.2-3-4.2-5.6-4v0.5c1.5,0,2.7,0.5,2.7,1.6c0,0.7-0.5,1.6-2,1.6c-1.2,0-3.5-0.7-5.4-1.3
	c-2.1-0.7-4-1.4-5.6-1.4c-3.2,0-5.6,2.4-5.6,5.3c0,2.4,1.8,3.2,2.5,3.5l0.2-0.4c-0.5-0.3-0.9-0.7-0.9-1.6c0-0.7,0.6-1.8,2.3-1.8
	c1.5,0,3.4,0.7,6,1.4c2.2,0.6,4.7,1.2,6,1.4v5l-2.5,2.1v0.2l2.5,2.2v6.9c-1.3,0.7-2.8,0.9-4,0.9c-2.4,0-4.6-0.6-6.4-2.6l6.7-3.2V9.1
	l-8.2,3.7c0.9-2.2,2.6-3.6,4.3-4.7L220,7.7c-4.9,1.3-9.3,5.8-9.3,11.3c0,6.6,5.4,11.5,11.5,11.5c6.6,0,10.8-5.2,10.7-10.6h-0.4
	c-1,2.1-2.4,4.1-4.2,5.1v-6.8l2.6-2.1v-0.2l-2.6-2.1v-5C230.7,8.7,233.2,7.1,233.2,4z M219,22.1l-2,1c-1.1-1.5-1.9-3.5-1.9-6.2
	c0-1.1,0.1-2.5,0.5-3.5l3.4-1.5V22.1z M238.8,2.5h-0.2l-3.3,2.8v0.2l2.8,3.1h0.3l3.3-2.7V5.7L238.8,2.5z M243.7,26.6l-1.2,0.8
	l-1.6-1.6V14.6l1.6-1.2l-0.3-0.4l-1.2,0.9l-2.8-3.4l-4.7,3.3l0.3,0.4l1.2-0.8l1.4,1.8v10.6l-2.1,1.6l0.2,0.3l1.1-0.8l3.6,3.3
	l4.9-3.3L243.7,26.6z M270.9,26.4l-1.2,0.8l-1.7-1.6V14.5l1.7-1.2l-0.3-0.4L268,14l-3.7-3.5l-4.8,3.4l-3.7-3.4l-4.7,3.4l-2.9-3.4
	l-4.7,3.3l0.2,0.4l1.2-0.8l1.6,1.7v10.6l-1.3,1.3l3.7,3.1l3.6-3.3l-1.5-1.4v-11l1.4-0.9l2.5,2.3v9.9l-1.2,1.3l3.8,3.1l3.5-3.3
	l-1.5-1.4v-11l1.2-0.8l2.7,2.3v9.7l-1.1,1.1l3.8,3.5l5-3.4L270.9,26.4z M285.1,23.9l-4,3.1l-4.2-3.3v-1.9l7.7-5.2v-0.2l-3.8-5.9
	l-8.4,4.5v11.1l5.6,4.1l7.4-5.8L285.1,23.9z M276.9,21.2v-8l0.3-0.2l3.6,5.6L276.9,21.2z M300,19.7l-3.1-2.4
	c2.1-1.8,2.9-4.3,2.9-5.9c0-0.2,0-0.7-0.1-1h-0.4c-0.3,0.9-0.9,1.6-2.2,1.6c-1.2,0-2.1-0.7-2.9-1.6l-7.3,4v5.9l2.7,2.1
	c-2.8,2.4-3.3,4.2-3.3,5.4c0,1.6,0.7,2.8,2.1,3.3l0.2-0.4c-0.3-0.3-0.7-0.5-0.7-1.2c0-0.5,0.7-1.3,1.9-1.3c1.6,0,2.6,1.1,3.1,1.7
	l7.1-4.2L300,19.7z M298.3,14.8c-1.1,1.9-3.6,3.8-5,4.9l-1.8-1.4v-5.8c0.7,1.6,2.4,2.9,4.3,2.9C296.8,15.4,297.4,15.3,298.3,14.8z
	 M295.4,27.8c-0.8-1.8-2.7-3.1-4.7-3.1c-0.5,0-1.8,0-3.1,0.8c0.7-1.2,2.9-3.6,5.7-5.2l2,1.6v5.9H295.4z"/>
</svg>
